<?xml version="1.0" encoding="utf-8"?>
<!-- Generator: Adobe Illustrator 17.0.0, SVG Export Plug-In . SVG Version: 6.00 Build 0)  -->
<!DOCTYPE svg PUBLIC "-//W3C//DTD SVG 1.1//EN" "http://www.w3.org/Graphics/SVG/1.1/DTD/svg11.dtd">
<svg version="1.1" id="Layer_1" xmlns="http://www.w3.org/2000/svg" xmlns:xlink="http://www.w3.org/1999/xlink" x="0px" y="0px"
	 width="917px" height="259px" viewBox="30.5 155.5 917 259" enable-background="new 30.5 155.5 917 259" xml:space="preserve">
<g>
	<g>
		<g>
			<path fill="#FFFFFF" d="M365.782,256.634c0-2.218-1.743-3.802-3.802-3.802c-1.109,0-2.059,0.475-3.327,1.584
				c-3.327,3.168-6.97,4.594-11.881,4.594c-11.089,0-18.851-8.238-18.851-19.96c0-11.881,7.762-20.119,19.01-20.119
				c5.545,0,9.03,2.693,10.297,3.96c2.059,1.901,3.01,2.218,4.119,2.218c2.218,0,3.96-1.743,3.96-3.802
				c0-1.267-0.475-2.218-1.584-3.327c-4.277-3.96-10.614-6.337-16.951-6.337c-16.475,0-27.881,11.248-27.881,27.564
				c0,16.158,11.564,27.564,27.881,27.564c7.129,0,13.149-2.218,17.584-6.653C365.307,259.01,365.782,257.901,365.782,256.634z"/>
			<path fill="#FFFFFF" d="M379.564,265.98c2.059,0,4.277-1.267,4.277-4.594v-22.97c0-13.465,7.446-19.485,14.891-19.485
				c9.188,0,13.307,5.386,13.307,17.267v25.03c0,3.485,2.218,4.594,4.277,4.594c2.059,0,4.277-1.267,4.277-4.594v-27.881
				c0-13.782-7.287-21.703-20.119-21.703c-6.97,0-13.624,3.327-16.792,8.396v-34.851c0-3.485-2.218-4.594-4.277-4.594
				c-2.059,0-4.277,1.267-4.277,4.594v76.198C375.287,264.871,377.505,265.98,379.564,265.98z"/>
			<path fill="#FFFFFF" d="M444.356,261.386v-44.673c0-3.485-2.218-4.594-4.277-4.594c-2.059,0-4.277,1.267-4.277,4.594v44.673
				c0,3.485,2.218,4.594,4.277,4.594C442.139,265.98,444.356,264.871,444.356,261.386z"/>
			<path fill="#FFFFFF" d="M440.079,199.604c2.851,0,5.861-2.376,5.861-5.861c0-3.485-3.01-5.861-5.861-5.861
				c-2.851,0-5.861,2.376-5.861,5.861C434.218,197.228,437.228,199.604,440.079,199.604z"/>
			<path fill="#FFFFFF" d="M463.208,265.98c2.059,0,4.277-1.267,4.277-4.594v-76.198c0-3.485-2.218-4.594-4.277-4.594
				c-2.059,0-4.277,1.267-4.277,4.594v76.198C458.931,264.871,461.149,265.98,463.208,265.98z"/>
			<path fill="#FFFFFF" d="M529.743,180.594c-2.059,0-4.277,1.267-4.277,4.594v35.485c-4.277-5.703-11.406-9.188-19.01-9.188
				c-15.683,0-27.089,11.564-27.089,27.564s11.406,27.564,27.089,27.564c7.446,0,14.574-3.485,19.01-9.03v3.802
				c0,3.485,2.218,4.594,4.277,4.594c2.059,0,4.277-1.267,4.277-4.594v-76.198C534.02,181.861,531.802,180.594,529.743,180.594z
				 M507.248,259.01c-11.248,0-18.693-8.079-18.693-19.96c0-9.98,5.861-20.119,18.693-20.119c11.089,0,19.168,8.396,19.168,20.119
				C526.257,250.614,518.337,259.01,507.248,259.01z"/>
			<path fill="#FFFFFF" d="M548.594,261.386c0,3.485,2.218,4.594,4.277,4.594c2.059,0,4.277-1.267,4.277-4.594v-22.97
				c0-9.03,3.802-18.693,14.416-18.693c0.317,0,0.634,0,0.951,0c0.475,0,0.951,0,1.584,0c2.851,0,4.594-1.584,4.594-4.277
				c0-0.792-0.317-2.693-2.376-3.485c-0.792-0.317-1.901-0.475-3.327-0.475c-6.654,0-12.832,3.485-16.158,8.871l-0.158-3.96
				c-0.158-3.96-3.01-4.436-4.277-4.436c-0.475,0-1.901,0.158-3.01,1.267c-0.792,0.792-1.109,1.901-1.109,3.168
				c0.158,1.743,0.158,6.178,0.158,8.238v36.752H548.594L548.594,261.386z"/>
			<path fill="#FFFFFF" d="M623.683,262.178c7.129-4.119,11.564-10.139,13.307-17.743c0.317-1.267,0.158-2.218-0.475-3.168
				c-0.634-1.267-1.901-1.901-3.327-1.901c-0.792,0-1.426,0.158-2.059,0.634c-1.109,0.634-1.743,1.584-2.059,3.01
				c-1.267,5.703-4.277,9.98-9.188,12.832c-2.852,1.584-5.861,2.535-9.03,2.535c-6.178,0-11.881-3.168-15.366-8.554l32.792-19.01
				c1.267-0.792,2.059-1.743,2.376-2.693c0.317-1.109,0.158-2.218-0.634-3.485c-4.911-8.554-12.673-13.465-21.228-13.465
				c-4.436,0-8.871,1.267-13.307,3.802c-12.99,7.604-16.951,23.446-9.188,37.069c5.069,8.871,13.782,14.099,23.287,14.099
				C614.653,265.98,619.406,264.713,623.683,262.178z M608,218.772c5.069,0,9.822,2.851,13.307,7.762l-29.148,16.792
				c-3.168-7.129-1.267-17.267,7.129-22.178C602.297,219.723,605.148,218.772,608,218.772z"/>
			<path fill="#FFFFFF" d="M670.574,211.644c-6.97,0-13.782,3.644-17.267,8.871l-0.158-3.96c-0.158-3.96-3.01-4.436-4.277-4.436
				c-0.475,0-1.901,0.158-3.01,1.267c-0.792,0.792-1.109,1.901-1.109,3.168c0.158,1.743,0.158,6.178,0.158,8.238v36.594
				c0,3.485,2.218,4.594,4.277,4.594c2.059,0,4.277-1.267,4.277-4.594v-22.97c0-13.465,7.446-19.485,14.891-19.485
				c9.188,0,13.307,5.386,13.307,17.267v25.03c0,3.485,2.218,4.594,4.277,4.594c2.059,0,4.277-1.267,4.277-4.594v-27.881
				C690.693,219.564,683.406,211.644,670.574,211.644z"/>
			<path fill="#FFFFFF" d="M326.97,293.545c-2.851,0-5.861,2.376-5.861,5.861c0,3.485,3.01,5.861,5.861,5.861
				c2.852,0,5.861-2.376,5.861-5.861C332.832,295.921,329.822,293.545,326.97,293.545z"/>
			<path fill="#FFFFFF" d="M326.97,317.624c-2.059,0-4.277,1.267-4.277,4.594v44.673c0,3.485,2.218,4.594,4.277,4.594
				c2.059,0,4.277-1.267,4.277-4.594v-44.673C331.248,318.891,329.03,317.624,326.97,317.624z"/>
			<path fill="#FFFFFF" d="M373.069,317.149c-6.97,0-13.782,3.644-17.267,8.871l-0.158-3.96c-0.158-3.96-3.01-4.436-4.277-4.436
				c-0.475,0-1.901,0.158-3.01,1.267c-0.792,0.792-1.109,1.901-1.109,3.168c0.158,1.743,0.158,6.178,0.158,8.238v36.594
				c0,3.485,2.218,4.594,4.277,4.594s4.277-1.267,4.277-4.594v-22.97c0-13.465,7.446-19.485,14.891-19.485
				c9.188,0,13.307,5.386,13.307,17.267v25.03c0,3.485,2.218,4.594,4.277,4.594s4.277-1.267,4.277-4.594v-28.04
				C393.188,325.069,385.901,317.149,373.069,317.149z"/>
			<path fill="#FFFFFF" d="M428.832,325.861c3.168,0,4.119-2.218,4.119-3.644c0-1.743-1.109-3.802-4.119-3.802h-11.089v-10.614
				c0-3.485-2.218-4.594-4.277-4.594c-2.059,0-4.277,1.267-4.277,4.594v10.614h-7.287c-3.01,0-4.119,2.059-4.119,3.802
				c0,1.426,0.792,3.644,4.119,3.644h7.287v31.366c0,12.832,9.663,14.257,13.782,14.257c2.693,0,5.545-0.475,7.129-1.109
				c2.535-1.109,2.851-3.01,2.851-3.644c0-2.218-1.426-3.644-3.485-3.644c-0.475,0-1.109,0.158-1.743,0.317
				c-1.109,0.475-2.059,0.634-3.01,0.634c-3.327,0-6.812-1.109-6.812-8.871v-29.307H428.832L428.832,325.861z"/>
			<path fill="#FFFFFF" d="M489.188,344.871c-0.792,0-1.426,0.158-2.059,0.634c-1.109,0.634-1.743,1.584-2.059,3.01
				c-1.267,5.703-4.277,9.98-9.188,12.832c-2.851,1.584-5.861,2.535-9.03,2.535c-6.178,0-11.881-3.168-15.366-8.554l32.792-19.01
				c2.693-1.584,3.327-3.644,1.743-6.178c-4.911-8.554-12.673-13.465-21.228-13.465c-4.436,0-8.871,1.267-13.307,3.802
				c-6.337,3.644-10.614,9.347-12.356,16.158c-1.743,6.812-0.634,14.257,3.168,20.753c5.069,8.871,13.782,14.099,23.287,14.099
				c4.752,0,9.505-1.267,13.782-3.802c7.129-4.119,11.564-10.139,13.307-17.743c0.317-1.267,0.158-2.218-0.475-3.168
				C491.881,345.663,490.614,344.871,489.188,344.871z M489.347,345.505C489.188,345.505,489.188,345.505,489.347,345.505
				C489.188,345.505,489.188,345.505,489.347,345.505C489.188,345.505,489.188,345.505,489.347,345.505z M464,324.436
				c5.069,0,9.822,2.852,13.307,7.762l-29.148,16.792c-3.168-7.129-1.267-17.267,7.129-22.178
				C458.297,325.228,461.149,324.436,464,324.436z M458.455,324.752L458.455,324.752L458.455,324.752z"/>
			<path fill="#FFFFFF" d="M531.327,317.624c-0.792-0.317-1.901-0.475-3.327-0.475c-6.654,0-12.832,3.485-16.158,8.871l-0.158-3.96
				c-0.158-3.96-3.01-4.436-4.277-4.436c-0.475,0-1.901,0.158-3.01,1.267c-0.792,0.792-1.109,1.901-1.109,3.168
				c0.158,1.743,0.158,6.178,0.158,8.238v36.594c0,3.485,2.218,4.594,4.277,4.594c2.059,0,4.277-1.267,4.277-4.594v-22.97
				c0-9.03,3.802-18.693,14.416-18.693c0.317,0,0.634,0,0.951,0c0.475,0,0.951,0,1.584,0c2.851,0,4.594-1.584,4.594-4.277
				C533.703,320.317,533.386,318.574,531.327,317.624z"/>
			<path fill="#FFFFFF" d="M568.554,317.149c-6.97,0-13.782,3.644-17.267,8.871l-0.158-3.96c-0.158-3.96-3.01-4.436-4.277-4.436
				c-0.475,0-1.901,0.158-3.01,1.267c-0.792,0.792-1.109,1.901-1.109,3.168c0.158,1.743,0.158,6.178,0.158,8.238v36.594
				c0,3.485,2.218,4.594,4.277,4.594c2.059,0,4.277-1.267,4.277-4.594v-22.97c0-13.465,7.446-19.485,14.891-19.485
				c9.188,0,13.307,5.386,13.307,17.267v25.03c0,3.485,2.218,4.594,4.277,4.594s4.277-1.267,4.277-4.594v-28.04
				C588.515,325.069,581.228,317.149,568.554,317.149z"/>
			<path fill="#FFFFFF" d="M643.168,365.307c-0.158-1.743-0.317-3.485-0.317-6.653v-22.495c0-11.881-7.921-19.168-20.436-19.168
				c-7.287,0-14.099,2.218-18.376,5.861c-1.109,0.951-1.584,2.059-1.584,3.168c0,2.059,1.426,3.644,3.485,3.644
				c0.951,0,1.901-0.317,3.01-1.109c3.96-2.851,8.079-4.119,12.832-4.119c8.713,0,13.148,4.277,13.148,12.673v1.109
				c-18.376,0-36.119,1.584-36.119,17.743c0,11.089,9.505,16.158,18.376,16.158c7.921,0,13.624-2.693,18.218-8.713
				c0,1.267,0.158,2.535,0.317,3.96c0.475,3.802,3.01,4.277,4.119,4.277c1.901,0,3.802-1.267,3.802-4.119
				c0-0.475,0-0.951-0.158-1.743L643.168,365.307z M618.931,364.832c-2.693,0-11.406-0.634-11.406-9.188
				c0-4.436,2.693-10.455,25.663-10.455h1.584v3.168C634.772,356.277,629.703,364.832,618.931,364.832z"/>
			<path fill="#FFFFFF" d="M678.495,325.861c3.168,0,4.119-2.218,4.119-3.644c0-1.743-1.109-3.802-4.119-3.802h-11.089v-10.614
				c0-3.485-2.218-4.594-4.277-4.594c-2.059,0-4.277,1.267-4.277,4.594v10.614h-7.287c-3.01,0-4.119,2.059-4.119,3.802
				c0,1.426,0.792,3.644,4.119,3.644h7.287v31.366c0,12.832,9.663,14.257,13.782,14.257c2.693,0,5.545-0.475,7.129-1.109
				c2.535-1.109,2.852-3.01,2.852-3.644c0-2.218-1.426-3.644-3.485-3.644c-0.475,0-1.109,0.158-1.743,0.317
				c-1.109,0.475-2.059,0.634-3.01,0.634c-3.327,0-6.812-1.109-6.812-8.871v-29.307H678.495L678.495,325.861z"/>
			<path fill="#FFFFFF" d="M696.871,317.624c-2.059,0-4.277,1.267-4.277,4.594v44.673c0,3.485,2.218,4.594,4.277,4.594
				c2.059,0,4.277-1.267,4.277-4.594v-44.673C701.148,318.891,698.931,317.624,696.871,317.624z"/>
			<path fill="#FFFFFF" d="M696.871,293.545c-2.851,0-5.861,2.376-5.861,5.861c0,3.485,3.01,5.861,5.861,5.861
				c2.851,0,5.861-2.376,5.861-5.861C702.733,295.921,699.723,293.545,696.871,293.545z"/>
			<path fill="#FFFFFF" d="M739.644,317.149c-16.158,0-27.881,11.564-27.881,27.564c0,16,11.723,27.564,27.881,27.564
				s27.881-11.564,27.881-27.564C767.525,328.713,755.802,317.149,739.644,317.149z M739.644,364.673
				c-11.089,0-18.693-8.238-18.693-19.96c0-11.564,7.921-20.119,18.693-20.119c11.089,0,18.852,8.238,18.852,20.119
				C758.495,356.436,750.733,364.673,739.644,364.673z"/>
			<path fill="#FFFFFF" d="M802.535,317.149c-6.97,0-13.782,3.644-17.267,8.871l-0.158-3.96c-0.158-3.96-3.01-4.436-4.277-4.436
				c-0.475,0-1.901,0.158-3.01,1.267c-0.792,0.792-1.109,1.901-1.109,3.168c0.158,1.743,0.158,6.178,0.158,8.238v36.594
				c0,3.485,2.218,4.594,4.277,4.594s4.277-1.267,4.277-4.594v-22.97c0-13.465,7.446-19.485,14.891-19.485
				c9.188,0,13.307,5.386,13.307,17.267v25.03c0,3.485,2.218,4.594,4.277,4.594s4.277-1.267,4.277-4.594v-28.04
				C822.653,325.069,815.366,317.149,802.535,317.149z M814.574,341.861L814.574,341.861L814.574,341.861L814.574,341.861z"/>
			<path fill="#FFFFFF" d="M878.257,365.307c-0.158-1.743-0.317-3.485-0.317-6.653v-22.495c0-11.881-7.921-19.168-20.436-19.168
				c-7.287,0-14.099,2.218-18.376,5.861c-1.109,0.951-1.584,2.059-1.584,3.168c0,2.059,1.426,3.644,3.485,3.644
				c0.951,0,1.901-0.317,3.01-1.109c3.96-2.851,8.079-4.119,12.832-4.119c8.713,0,13.148,4.277,13.148,12.673v1.109
				c-18.376,0-36.119,1.584-36.119,17.743c0,11.089,9.505,16.158,18.376,16.158c7.921,0,13.624-2.693,18.218-8.713
				c0,1.267,0.158,2.535,0.317,3.96c0.475,3.802,3.01,4.277,4.119,4.277c1.901,0,3.802-1.267,3.802-4.119
				c0-0.475,0-0.951-0.158-1.743L878.257,365.307z M842.931,342.495L842.931,342.495L842.931,342.495z M854.02,364.832
				c-2.693,0-11.406-0.634-11.406-9.188c0-4.436,2.693-10.455,25.663-10.455h1.584v3.168
				C869.861,356.277,864.792,364.832,854.02,364.832z"/>
			<path fill="#FFFFFF" d="M895.842,286.257c-2.059,0-4.277,1.267-4.277,4.594v76.198c0,3.485,2.218,4.594,4.277,4.594
				s4.277-1.267,4.277-4.594v-76.198C900.277,287.366,898.059,286.257,895.842,286.257z"/>
		</g>
		<path fill="#FFFFFF" d="M245.861,362.455c-17.109-29.307-48-47.208-82.218-47.208s-65.109,17.901-82.218,47.208
			c-19.802-20.594-32-48.475-32-79.208c0-63.05,51.168-114.218,114.218-114.218s114.218,51.168,114.218,114.218
			C277.861,314.139,265.663,342.02,245.861,362.455 M223.525,380.515c-11.248-22.653-34.218-37.069-59.881-37.069
			s-48.634,14.416-59.881,37.069c-5.386-3.327-10.614-7.129-15.366-11.406c15.208-27.564,43.564-44.515,75.248-44.515
			s60.198,16.951,75.248,44.515C234.139,373.386,228.911,377.188,223.525,380.515 M198.337,392.238
			c-6.812-12.832-19.96-21.069-34.693-21.069c-14.574,0-28.04,8.238-34.693,21.069c-5.861-1.901-11.723-4.277-17.109-7.129
			c9.663-19.802,29.624-32.317,51.802-32.317c22.337,0,42.139,12.515,51.802,32.317C210.059,387.96,204.198,390.337,198.337,392.238
			 M163.644,397.624c-8.713,0-17.267-0.951-25.505-2.851c5.386-8.713,15.049-14.257,25.505-14.257
			c10.614,0,20.119,5.386,25.505,14.257C180.911,396.515,172.356,397.624,163.644,397.624 M163.644,159.842
			c-68.119,0-123.564,55.446-123.564,123.564S95.525,406.97,163.644,406.97s123.564-55.446,123.564-123.564
			S231.762,159.842,163.644,159.842"/>
		<path fill="#FFFFFF" d="M163.644,243.485c-21.703,0-39.287,17.584-39.287,39.287c0,6.97,1.743,13.624,5.228,19.644
			c0.475,0.951,1.109,1.743,1.584,2.535c0.951,1.267,2.376,2.059,3.802,2.059c0.95,0,1.743-0.317,2.693-0.792
			c2.059-1.426,2.693-4.277,1.267-6.495c-0.475-0.634-0.792-1.267-1.267-1.901c-2.535-4.594-3.96-9.663-3.96-15.049
			c0-16.634,13.465-30.099,30.099-30.099s30.099,13.465,30.099,30.099c0,5.228-1.426,10.455-3.96,15.049
			c-0.317,0.634-0.792,1.267-1.267,1.901c-1.426,2.059-0.95,5.069,1.267,6.495c2.059,1.426,5.069,0.95,6.495-1.267
			c0.634-0.792,1.109-1.743,1.584-2.535c3.485-6.02,5.228-12.673,5.228-19.644C202.931,261.069,185.347,243.485,163.644,243.485"/>
		<path fill="#FFFFFF" d="M163.644,215.762c-36.911,0-67.01,30.099-67.01,67.01c0,11.406,2.851,22.653,8.396,32.475
			c0.792,1.584,2.376,2.376,4.119,2.376c0.792,0,1.584-0.158,2.218-0.634c2.218-1.267,3.01-4.119,1.743-6.337
			c-4.752-8.554-7.287-18.218-7.287-28.04c0-31.842,25.822-57.663,57.663-57.663s57.663,25.822,57.663,57.663
			c0,9.822-2.535,19.485-7.287,28.04c-1.267,2.218-0.475,5.069,1.743,6.337c2.218,1.267,5.069,0.475,6.337-1.743
			c5.545-9.822,8.396-21.069,8.396-32.475C230.653,245.861,200.554,215.762,163.644,215.762"/>
		<path fill="#FFFFFF" d="M163.644,187.564c-52.436,0-95.208,42.772-95.208,95.208c0,16.475,5.386,35.01,14.574,50.535
			c0.792,1.426,2.376,2.218,3.96,2.218c0.792,0,1.584-0.158,2.376-0.634c2.218-1.267,2.851-4.119,1.584-6.337
			c-8.396-14.257-13.307-30.891-13.307-45.782c0-47.366,38.495-85.861,85.861-85.861s85.861,38.495,85.861,85.861
			c0,15.05-4.752,31.525-12.99,45.307c-1.267,2.218-0.634,5.069,1.584,6.337c2.218,1.267,5.069,0.634,6.337-1.584
			c9.03-15.208,14.257-33.426,14.257-50.059C258.851,230.337,216.079,187.564,163.644,187.564"/>
	</g>
	<g>
		<path fill="#FFFFFF" d="M914.059,293.069l-0.317-0.158c-1.901-0.634-2.851-1.109-2.851-2.218c0-1.584,1.584-2.059,2.535-2.059
			c0.95,0,1.584,0.158,2.218,0.792c1.426,1.267,3.168,0.317,3.168-1.109c0-0.475-0.158-0.951-0.634-1.267
			c-1.109-1.109-2.851-1.743-4.752-1.743c-3.01,0-6.178,1.901-6.178,5.386c0,3.96,3.327,4.911,5.069,5.386
			c2.376,0.792,3.168,1.109,3.168,2.535c0,1.584-1.584,2.218-2.693,2.218c-0.95,0-1.901-0.317-2.693-1.267
			c-0.317-0.317-0.792-0.634-1.267-0.634c-0.95,0-1.743,0.792-1.743,1.743c0,0.475,0.158,0.95,0.634,1.426
			c1.267,1.267,3.168,1.901,5.069,1.901c3.01,0,6.178-1.743,6.178-5.703C919.287,294.812,916.277,293.861,914.059,293.069z"/>
		<path fill="#FFFFFF" d="M936.871,285.624c-0.634,0-1.426,0.317-2.059,1.426l-4.911,11.406l-5.069-11.406
			c-0.475-1.267-1.426-1.426-2.059-1.426c-0.951,0-1.901,0.634-1.901,2.059v14.574c0,2.376,3.485,2.376,3.485,0v-7.446l3.485,7.921
			c0.317,0.792,1.109,1.267,1.901,1.267c0.792,0,1.584-0.475,1.901-1.267l3.485-8.079v7.446c0,1.267,0.95,1.901,1.742,1.901
			c0.951,0,1.743-0.634,1.743-1.901v-14.574C938.772,286.257,937.822,285.624,936.871,285.624z"/>
	</g>
</g>
</svg>
