<?xml version="1.0" encoding="UTF-8" standalone="no"?>
<svg width="15px" height="15px" viewBox="0 0 15 15" version="1.1" xmlns="http://www.w3.org/2000/svg" xmlns:xlink="http://www.w3.org/1999/xlink" xmlns:sketch="http://www.bohemiancoding.com/sketch/ns">
    <!-- Generator: Sketch 3.4.4 (17249) - http://www.bohemiancoding.com/sketch -->
    <title>Oval 1 Copy 3 + </title>
    <desc>Created with Sketch.</desc>
    <defs></defs>
    <g id="Page-1" stroke="none" stroke-width="1" fill="none" fill-rule="evenodd" sketch:type="MSPage">
        <g id="Artboard-1" sketch:type="MSArtboardGroup" transform="translate(-34.000000, -17.000000)">
            <g id="Oval-1-Copy-3-+-" sketch:type="MSLayerGroup" transform="translate(35.000000, 18.000000)">
                <circle id="Oval-1-Copy-3" stroke="#23B804" fill="#2FC908" sketch:type="MSShapeGroup" cx="6.5" cy="6.5" r="6.5"></circle>
                <g id="" transform="translate(3.000000, 3.000000)" fill="#FFFFFF" sketch:type="MSShapeGroup">
                    <path d="M3.58921858,4.07166634 C3.58921858,4.10552067 3.57619788,4.13546829 3.55015608,4.16151009 L2.25328108,5.45838509 L2.81578108,6.02088509 C2.8652605,6.0703645 2.88999983,6.12895766 2.88999983,6.19666634 C2.88999983,6.26437501 2.8652605,6.32296817 2.81578108,6.37244759 C2.76630167,6.421927 2.70770851,6.44666634 2.63999983,6.44666634 L0.889999835,6.44666634 C0.822291163,6.44666634 0.763697999,6.421927 0.714218585,6.37244759 C0.664739171,6.32296817 0.639999835,6.26437501 0.639999835,6.19666634 L0.639999835,4.44666634 C0.639999835,4.37895766 0.664739171,4.3203645 0.714218585,4.27088509 C0.763697999,4.22140567 0.822291163,4.19666634 0.889999835,4.19666634 C0.957708507,4.19666634 1.01630167,4.22140567 1.06578108,4.27088509 L1.62828108,4.83338509 L2.92515608,3.53651009 C2.95119788,3.51046829 2.9811455,3.49744759 3.01499983,3.49744759 C3.04885417,3.49744759 3.07880179,3.51046829 3.10484358,3.53651009 L3.55015608,3.98182259 C3.57619788,4.00786438 3.58921858,4.037812 3.58921858,4.07166634 L3.58921858,4.07166634 Z M6.63999983,0.696666336 L6.63999983,2.44666634 C6.63999983,2.51437501 6.6152605,2.57296817 6.56578108,2.62244759 C6.51630167,2.671927 6.45770851,2.69666634 6.38999983,2.69666634 C6.32229116,2.69666634 6.263698,2.671927 6.21421858,2.62244759 L5.65171858,2.05994759 L4.35484358,3.35682259 C4.32880179,3.38286438 4.29885417,3.39588509 4.26499983,3.39588509 C4.2311455,3.39588509 4.20119788,3.38286438 4.17515608,3.35682259 L3.72984358,2.91151009 C3.70380179,2.88546829 3.69078108,2.85552067 3.69078108,2.82166634 C3.69078108,2.787812 3.70380179,2.75786438 3.72984358,2.73182259 L5.02671858,1.43494759 L4.46421858,0.872447586 C4.41473917,0.822968172 4.38999983,0.764375008 4.38999983,0.696666336 C4.38999983,0.628957664 4.41473917,0.5703645 4.46421858,0.520885086 C4.513698,0.471405672 4.57229116,0.446666336 4.63999983,0.446666336 L6.38999983,0.446666336 C6.45770851,0.446666336 6.51630167,0.471405672 6.56578108,0.520885086 C6.6152605,0.5703645 6.63999983,0.628957664 6.63999983,0.696666336 L6.63999983,0.696666336 Z"></path>
                </g>
            </g>
        </g>
    </g>
</svg>