<?xml version="1.0" encoding="UTF-8"?>
<svg width="101px" height="12px" viewBox="0 0 101 12" version="1.1" xmlns="http://www.w3.org/2000/svg" xmlns:xlink="http://www.w3.org/1999/xlink">
    <!-- Generator: Sketch 39.1 (31720) - http://www.bohemiancoding.com/sketch -->
    <title>Group</title>
    <desc>Created with Sketch.</desc>
    <defs></defs>
    <g id="Page-1" stroke="none" stroke-width="1" fill="none" fill-rule="evenodd">
        <g id="Artboard" transform="translate(-46.000000, -14.000000)">
            <g id="Group" transform="translate(46.000000, 14.000000)">
                <path d="M16.2952301,0.713882028 L12.8512839,11.4596564 L10.3014391,11.4596564 L8.24831735,3.66110521 L6.12896585,11.4596564 L3.57912108,11.4596564 L0.251076923,0.713882028 L2.93338117,0.713882028 L5.0196178,8.56210555 L7.10585443,0.713882028 L9.5066823,0.713882028 L11.7584933,8.56210555 L13.6791556,0.713882028 L16.2952301,0.713882028 Z M20.1696695,11.4596564 L17.5867099,11.4596564 L17.5867099,0.713882028 L20.1696695,0.713882028 L20.1696695,11.4596564 Z M30.7333122,7.68456157 L30.7333122,8.39653122 C30.7333122,9.03675518 30.6174113,9.5748664 30.3856061,10.010881 C30.1538008,10.4468956 29.8116173,10.778041 29.3590452,11.004327 C28.9064731,11.2306131 28.4125146,11.3906667 27.8771549,11.4844926 C27.3417952,11.5783185 26.7043404,11.6252308 25.9647713,11.6252308 C24.9382053,11.6252308 23.6688147,11.5258872 22.1565616,11.327197 L22.1565616,9.35686237 C23.9889267,9.64385932 25.2693554,9.78735564 25.9978862,9.78735564 C27.4328709,9.78735564 28.1503525,9.41757665 28.1503525,8.67800759 L28.1503525,7.98259538 C28.1503525,7.66248339 28.056528,7.40032665 27.8688762,7.19611728 C27.6812243,6.99190791 27.3059262,6.88980476 26.7429707,6.88980476 L25.4846057,6.88980476 C23.1224001,6.88980476 21.9413149,5.95155957 21.9413149,4.07504105 L21.9413149,3.28028424 C21.9413149,2.35306332 22.3304107,1.6659367 23.108614,1.21888375 C23.8868173,0.771830811 25.1313719,0.548307692 26.8423153,0.548307692 C27.6701911,0.548307692 28.7905662,0.620055854 30.2034743,0.763554329 L30.2034743,2.68421663 C28.525646,2.48552643 27.3776754,2.38618282 26.7595281,2.38618282 C25.9095756,2.38618282 25.3245521,2.45793098 25.0044402,2.60142946 C24.6843282,2.74492793 24.5242746,2.98776786 24.5242746,3.32995654 L24.5242746,4.09159848 C24.5242746,4.65455404 24.9989163,4.9360276 25.9482139,4.9360276 L27.2396937,4.9360276 C28.4980649,4.9360276 29.394917,5.16782935 29.9302766,5.63143981 C30.4656363,6.09505027 30.7333122,6.77941734 30.7333122,7.68456157 L30.7333122,7.68456157 Z M40.883019,11.4596564 L32.521515,11.4596564 L32.521515,0.713882028 L40.7174446,0.713882028 L40.7174446,2.55175716 L35.1044746,2.55175716 L35.1044746,5.01881476 L40.1710493,5.01881476 L40.1710493,6.85668989 L35.1044746,6.85668989 L35.1044746,9.6217813 L40.883019,9.6217813 L40.883019,11.4596564 Z" id="WISE" fill="#F35050"></path>
                <path d="M55.2469403,7.4030852 L55.2469403,9.05882856 C55.2469403,9.95293445 54.8881995,10.5765915 54.1707071,10.9298186 C53.4532148,11.2830456 52.3880305,11.4596564 50.9751225,11.4596564 L46.5046154,11.4596564 L46.5046154,0.713882028 L50.8592204,0.713882028 C52.3825119,0.713882028 53.4145816,0.884973798 53.9554605,1.22716247 C54.4963394,1.56935114 54.7667747,2.16541279 54.7667747,3.0153653 L54.7667747,4.33995999 C54.7667747,4.64903363 54.6453548,4.93602627 54.4025112,5.20094653 C54.1596676,5.4658668 53.8837132,5.64247765 53.5746395,5.73078441 L53.5746395,5.81357158 C53.9720199,5.85772495 54.3500775,6.03433581 54.7088237,6.34340945 C55.0675699,6.65248309 55.2469403,7.00570481 55.2469403,7.4030852 L55.2469403,7.4030852 Z M52.2831597,4.00881131 L52.2831597,3.47897344 C52.2831597,3.12574642 52.2003734,2.88290649 52.0347982,2.75044636 C51.869223,2.61798623 51.4608104,2.55175716 50.8095481,2.55175716 L49.087575,2.55175716 L49.087575,5.0850445 L50.8592204,5.0850445 C51.4663294,5.0850445 51.8554252,5.00777725 52.0265195,4.85324043 C52.1976138,4.69870361 52.2831597,4.41723005 52.2831597,4.00881131 L52.2831597,4.00881131 Z M52.6639807,8.71112246 L52.6639807,7.85013591 C52.6639807,7.45275552 52.5618775,7.17128196 52.3576682,7.0057068 C52.1534588,6.84013163 51.7919584,6.75734529 51.2731563,6.75734529 L49.087575,6.75734529 L49.087575,9.6217813 L50.9254502,9.6217813 C51.5546358,9.6217813 52.001682,9.55003314 52.2666023,9.40653467 C52.5315225,9.26303619 52.6639807,9.03123444 52.6639807,8.71112246 L52.6639807,8.71112246 Z M66.9861607,3.81012211 L66.9861607,8.51243325 C66.9861607,9.11954219 66.8261072,9.63833659 66.5059952,10.068832 C66.1858832,10.4993274 65.7553942,10.8221942 65.2145154,11.0374419 C64.6736365,11.2526896 64.1327657,11.4044645 63.5918869,11.4927713 C63.051008,11.5810781 62.4770227,11.6252308 61.8699138,11.6252308 C61.2959199,11.6252308 60.7578087,11.5893567 60.255564,11.5176075 C59.7533193,11.4458582 59.2179677,11.3106405 58.6494929,11.1119503 C58.0810182,10.9132601 57.6284529,10.5931529 57.2917834,10.1516192 C56.9551139,9.71008541 56.7867816,9.16369556 56.7867816,8.51243325 L56.7867816,3.81012211 C56.7867816,3.2582049 56.9109612,2.77252504 57.1593239,2.35306795 C57.4076867,1.93361087 57.7057175,1.61350369 58.0534253,1.39273681 C58.4011332,1.17196992 58.8233435,0.992599517 59.320069,0.854620214 C59.8167945,0.716640911 60.2583216,0.631095026 60.6446637,0.597979993 C61.0310057,0.56486496 61.4394183,0.548307692 61.8699138,0.548307692 C62.3114475,0.548307692 62.7281388,0.56486496 63.12,0.597979993 C63.5118612,0.631095026 63.9561479,0.716640911 64.4528734,0.854620214 C64.9495989,0.992599517 65.3745688,1.17196992 65.7277958,1.39273681 C66.0810228,1.61350369 66.3790536,1.93085133 66.6218972,2.34478924 C66.8647408,2.75872715 66.9861607,3.24716655 66.9861607,3.81012211 L66.9861607,3.81012211 Z M64.4032011,8.51243325 L64.4032011,3.79356468 C64.4032011,3.2747625 64.1907162,2.9105026 63.7657399,2.70077406 C63.3407637,2.49104552 62.714347,2.38618282 61.8864712,2.38618282 C61.047557,2.38618282 60.4183808,2.48828597 59.9989238,2.69249534 C59.5794667,2.89670471 59.3697413,3.26372415 59.3697413,3.79356468 L59.3697413,8.51243325 C59.3697413,8.78839186 59.4414895,9.01743407 59.5849879,9.19956675 C59.7284864,9.38169943 59.9354523,9.51139803 60.2058917,9.58866644 C60.4763311,9.66593485 60.7357283,9.7183662 60.9840911,9.74596206 C61.2324538,9.77355792 61.5387633,9.78735564 61.9030286,9.78735564 C62.267294,9.78735564 62.5736034,9.77355792 62.8219662,9.74596206 C63.0703289,9.7183662 63.3269666,9.66593485 63.5918869,9.58866644 C63.8568071,9.51139803 64.0582539,9.38169943 64.1962332,9.19956675 C64.3342125,9.01743407 64.4032011,8.78839186 64.4032011,8.51243325 L64.4032011,8.51243325 Z M78.9406278,11.4596564 L76.3245533,11.4596564 L75.3642221,8.62833529 L71.4401104,8.62833529 L70.4963367,11.4596564 L67.9464919,11.4596564 L71.920276,0.713882028 L75.0661883,0.713882028 L78.9406278,11.4596564 Z M74.8012694,6.90636219 L73.4435598,2.8663484 L73.3773301,2.8663484 L72.0196206,6.90636219 L74.8012694,6.90636219 Z M89.7029596,11.4596564 L86.7226216,11.4596564 L83.9078579,7.23751087 L82.7157227,7.23751087 L82.7157227,11.4596564 L80.132763,11.4596564 L80.132763,0.713882028 L84.9675336,0.713882028 C86.3804417,0.713882028 87.4125114,0.884973798 88.0637737,1.22716247 C88.715036,1.56935114 89.0406623,2.15437461 89.0406623,2.98225043 L89.0406623,4.86979786 C89.0406623,5.52106017 88.806101,6.0232973 88.3369714,6.37652432 C87.8678417,6.72975133 87.2855778,6.95051491 86.5901621,7.03882166 L89.7029596,11.4596564 Z M86.507375,4.35651742 L86.507375,3.59487547 C86.507375,3.19749508 86.3887145,2.92430016 86.1513901,2.77528251 C85.9140657,2.62626486 85.5084127,2.55175716 84.9344188,2.55175716 L82.7157227,2.55175716 L82.7157227,5.53209521 L84.9344188,5.53209521 C85.5415277,5.53209521 85.9554594,5.45206841 86.1762263,5.29201242 C86.3969932,5.13195643 86.507375,4.82012788 86.507375,4.35651742 L86.507375,4.35651742 Z M100.86267,3.97569645 L100.86267,8.34685892 C100.86267,9.56107679 100.487372,10.3834211 99.7367644,10.8139165 C98.986157,11.2444119 97.6670946,11.4596564 95.7795378,11.4596564 L91.1931287,11.4596564 L91.1931287,0.713882028 L95.7629803,0.713882028 C97.5843071,0.713882028 98.8895718,0.940164691 99.6788134,1.39273681 C100.468055,1.84530892 100.86267,2.70628686 100.86267,3.97569645 L100.86267,3.97569645 Z M98.2797102,8.34685892 L98.2797102,3.92602415 C98.2797102,3.40722197 98.0699848,3.04848116 97.6505278,2.84979096 C97.2310707,2.65110077 96.5963754,2.55175716 95.7464229,2.55175716 L93.7760883,2.55175716 L93.7760883,9.6217813 L95.6636357,9.6217813 C96.6570867,9.6217813 97.3414538,9.5472736 97.7167575,9.39825595 C98.0920612,9.2492383 98.2797102,8.89877613 98.2797102,8.34685892 L98.2797102,8.34685892 Z" id="BOARD" fill="#F1F1F1"></path>
            </g>
        </g>
    </g>
</svg>