<?xml version="1.0" encoding="UTF-8" standalone="no"?>
<svg width="15px" height="15px" viewBox="0 0 15 15" version="1.1" xmlns="http://www.w3.org/2000/svg" xmlns:xlink="http://www.w3.org/1999/xlink" xmlns:sketch="http://www.bohemiancoding.com/sketch/ns">
    <!-- Generator: Sketch 3.4.4 (17249) - http://www.bohemiancoding.com/sketch -->
    <title>Oval 1 Copy 6 + </title>
    <desc>Created with Sketch.</desc>
    <defs></defs>
    <g id="Page-1" stroke="none" stroke-width="1" fill="none" fill-rule="evenodd" sketch:type="MSPage">
        <g id="Artboard-1" sketch:type="MSArtboardGroup" transform="translate(-34.000000, -34.000000)">
            <g id="Oval-1-Copy-6-+-" sketch:type="MSLayerGroup" transform="translate(35.000000, 35.000000)">
                <circle id="Oval-1-Copy-6" stroke="#23B804" fill="#2FC908" sketch:type="MSShapeGroup" cx="6.5" cy="6.5" r="6.5"></circle>
                <g id="" transform="translate(3.000000, 3.000000)" fill="#FFFFFF" sketch:type="MSShapeGroup">
                    <path d="M3.72666683,3.69666634 L3.72666683,5.44666634 C3.72666683,5.51437501 3.7019275,5.57296817 3.65244808,5.62244759 C3.60296867,5.671927 3.5443755,5.69666634 3.47666683,5.69666634 C3.40895816,5.69666634 3.350365,5.671927 3.30088558,5.62244759 L2.73838558,5.05994759 L1.44151058,6.35682259 C1.41546879,6.38286438 1.38552117,6.39588509 1.35166683,6.39588509 C1.3178125,6.39588509 1.28786488,6.38286438 1.26182308,6.35682259 L0.816510582,5.91151009 C0.790468785,5.88546829 0.777448082,5.85552067 0.777448082,5.82166634 C0.777448082,5.787812 0.790468785,5.75786438 0.816510582,5.73182259 L2.11338558,4.43494759 L1.55088558,3.87244759 C1.50140617,3.82296817 1.47666683,3.76437501 1.47666683,3.69666634 C1.47666683,3.62895766 1.50140617,3.5703645 1.55088558,3.52088509 C1.600365,3.47140567 1.65895816,3.44666634 1.72666683,3.44666634 L3.47666683,3.44666634 C3.5443755,3.44666634 3.60296867,3.47140567 3.65244808,3.52088509 C3.7019275,3.5703645 3.72666683,3.62895766 3.72666683,3.69666634 L3.72666683,3.69666634 Z M6.67588558,1.07166634 C6.67588558,1.10552067 6.66286488,1.13546829 6.63682308,1.16151009 L5.33994808,2.45838509 L5.90244808,3.02088509 C5.9519275,3.0703645 5.97666683,3.12895766 5.97666683,3.19666634 C5.97666683,3.26437501 5.9519275,3.32296817 5.90244808,3.37244759 C5.85296867,3.421927 5.7943755,3.44666634 5.72666683,3.44666634 L3.97666683,3.44666634 C3.90895816,3.44666634 3.850365,3.421927 3.80088558,3.37244759 C3.75140617,3.32296817 3.72666683,3.26437501 3.72666683,3.19666634 L3.72666683,1.44666634 C3.72666683,1.37895766 3.75140617,1.3203645 3.80088558,1.27088509 C3.850365,1.22140567 3.90895816,1.19666634 3.97666683,1.19666634 C4.0443755,1.19666634 4.10296867,1.22140567 4.15244808,1.27088509 L4.71494808,1.83338509 L6.01182308,0.536510086 C6.03786488,0.510468289 6.0678125,0.497447586 6.10166683,0.497447586 C6.13552117,0.497447586 6.16546879,0.510468289 6.19151058,0.536510086 L6.63682308,0.981822586 C6.66286488,1.00786438 6.67588558,1.037812 6.67588558,1.07166634 L6.67588558,1.07166634 Z"></path>
                </g>
            </g>
        </g>
    </g>
</svg>